<svg xmlns="http://www.w3.org/2000/svg" width="256" height="256" viewBox="0 0 256 256">
  <defs>
    <linearGradient id="g" x1="0" x2="1" y1="0" y2="1">
      <stop offset="0%" stop-color="#10b981"/>
      <stop offset="100%" stop-color="#22c55e"/>
    </linearGradient>
  </defs>
  <rect width="256" height="256" rx="16" fill="#f3f4f6"/>
  <rect x="12" y="12" width="232" height="232" rx="12" fill="#fff" stroke="#e5e7eb"/>
  <g fill="#111827">
    <rect x="28" y="28" width="40" height="40" rx="4"/>
    <rect x="188" y="28" width="40" height="40" rx="4"/>
    <rect x="28" y="188" width="40" height="40" rx="4"/>
  </g>
  <g transform="translate(0, 90)">
    <rect x="60" y="0" width="24" height="24" fill="#111827"/>
    <rect x="100" y="0" width="24" height="24" fill="#111827"/>
    <rect x="140" y="0" width="24" height="24" fill="#111827"/>
    <rect x="180" y="0" width="24" height="24" fill="#111827"/>

    <rect x="60" y="40" width="24" height="24" fill="#111827"/>
    <rect x="100" y="40" width="24" height="24" fill="#111827"/>
    <rect x="140" y="40" width="24" height="24" fill="#111827"/>
    <rect x="180" y="40" width="24" height="24" fill="#111827"/>
  </g>
  <rect x="28" y="117" width="200" height="4" fill="url(#g)" opacity="0.4"/>
  <text x="128" y="210" text-anchor="middle" font-family="Arial, Helvetica, sans-serif" font-size="14" fill="#6b7280">
    Zalo QR Placeholder
  </text>
</svg>
